<svg width="0" height="0" class="hidden">
    <symbol xmlns="http://www.w3.org/2000/svg" viewBox="0 0 511 511.9" id="instagram">
        <path d="M510.95 150.5c-1.2-27.2-5.598-45.898-11.9-62.102-6.5-17.199-16.5-32.597-29.6-45.398-12.802-13-28.302-23.102-45.302-29.5-16.296-6.3-34.898-10.7-62.097-11.898C334.648.3 325.949 0 256.449 0s-78.199.3-105.5 1.5c-27.199 1.2-45.898 5.602-62.097 11.898-17.204 6.5-32.602 16.5-45.403 29.602-13 12.8-23.097 28.3-29.5 45.3-6.3 16.302-10.699 34.9-11.898 62.098C.75 177.801.449 186.5.449 256s.301 78.2 1.5 105.5c1.2 27.2 5.602 45.898 11.903 62.102 6.5 17.199 16.597 32.597 29.597 45.398 12.801 13 28.301 23.102 45.301 29.5 16.3 6.3 34.898 10.7 62.102 11.898 27.296 1.204 36 1.5 105.5 1.5s78.199-.296 105.5-1.5c27.199-1.199 45.898-5.597 62.097-11.898a130.934 130.934 0 0074.903-74.898c6.296-16.301 10.699-34.903 11.898-62.102 1.2-27.3 1.5-36 1.5-105.5s-.102-78.2-1.3-105.5zm-46.098 209c-1.102 25-5.301 38.5-8.801 47.5-8.602 22.3-26.301 40-48.602 48.602-9 3.5-22.597 7.699-47.5 8.796-27 1.204-35.097 1.5-103.398 1.5s-76.5-.296-103.403-1.5c-25-1.097-38.5-5.296-47.5-8.796C94.551 451.5 84.45 445 76.25 436.5c-8.5-8.3-15-18.3-19.102-29.398-3.5-9-7.699-22.602-8.796-47.5-1.204-27-1.5-35.102-1.5-103.403s.296-76.5 1.5-103.398c1.097-25 5.296-38.5 8.796-47.5C61.25 94.199 67.75 84.1 76.352 75.898c8.296-8.5 18.296-15 29.398-19.097 9-3.5 22.602-7.7 47.5-8.801 27-1.2 35.102-1.5 103.398-1.5 68.403 0 76.5.3 103.403 1.5 25 1.102 38.5 5.3 47.5 8.8 11.097 4.098 21.199 10.598 29.398 19.098 8.5 8.301 15 18.301 19.102 29.403 3.5 9 7.699 22.597 8.8 47.5 1.2 27 1.5 35.097 1.5 103.398s-.3 76.301-1.5 103.301zm0 0"></path>
        <path d="M256.45 124.5c-72.598 0-131.5 58.898-131.5 131.5s58.902 131.5 131.5 131.5c72.6 0 131.5-58.898 131.5-131.5s-58.9-131.5-131.5-131.5zm0 216.8c-47.098 0-85.302-38.198-85.302-85.3s38.204-85.3 85.301-85.3c47.102 0 85.301 38.198 85.301 85.3s-38.2 85.3-85.3 85.3zm167.402-222c0 16.954-13.747 30.7-30.704 30.7-16.953 0-30.699-13.746-30.699-30.7 0-16.956 13.746-30.698 30.7-30.698 16.956 0 30.703 13.742 30.703 30.699zm0 0"></path>
    </symbol>
   
    <symbol xmlns="http://www.w3.org/2000/svg" viewBox="0 0 24 24" id="facebook">
        <path d="M15.997 3.985h2.191V.169C17.81.117 16.51 0 14.996 0c-3.159 0-5.323 1.987-5.323 5.639V9H6.187v4.266h3.486V24h4.274V13.267h3.345l.531-4.266h-3.877V6.062c.001-1.233.333-2.077 2.051-2.077z"></path>
    </symbol>
    <svg width="0" height="0" class="hidden">
        <symbol xmlns="http://www.w3.org/2000/svg" viewBox="0 0 512 512" id="maps">
            <path d="M256 0C153.755 0 70.573 83.182 70.573 185.426c0 126.888 165.939 313.167 173.004 321.035 6.636 7.391 18.222 7.378 24.846 0 7.065-7.868 173.004-194.147 173.004-321.035C441.425 83.182 358.244 0 256 0zm0 469.729c-55.847-66.338-152.035-197.217-152.035-284.301 0-83.834 68.202-152.036 152.035-152.036s152.035 68.202 152.035 152.035C408.034 272.515 311.861 403.37 256 469.729z"></path>
            <path d="M256 92.134c-51.442 0-93.292 41.851-93.292 93.293S204.559 278.72 256 278.72s93.291-41.851 93.291-93.293S307.441 92.134 256 92.134zm0 153.194c-33.03 0-59.9-26.871-59.9-59.901s26.871-59.901 59.9-59.901 59.9 26.871 59.9 59.901-26.871 59.901-59.9 59.901z"></path>
        </symbol>
    </svg>
    <symbol width="30px" height="30px" viewBox="0 0 32 32" xmlns="http://www.w3.org/2000/svg" id="person">
        <path d="M16 15.503A5.041 5.041 0 1 0 16 5.42a5.041 5.041 0 0 0 0 10.083zm0 2.215c-6.703 0-11 3.699-11 5.5v3.363h22v-3.363c0-2.178-4.068-5.5-11-5.5z"/>
    </symbol>
    <symbol width="30px" height="30px" viewBox="0 0 24 24" xmlns="http://www.w3.org/2000/svg" id="handbag">
  <path class="cls-1" d="M3.41,7.23H20.59a0,0,0,0,1,0,0v12a3.23,3.23,0,0,1-3.23,3.23H6.64a3.23,3.23,0,0,1-3.23-3.23v-12A0,0,0,0,1,3.41,7.23Z"/>
<path class="cls-1" d="M8.18,10.09V5.32A3.82,3.82,0,0,1,12,1.5h0a3.82,3.82,0,0,1,3.82,3.82v4.77"/>
<symbol width="30px" height="30px" viewBox="0 0 32 32"  xmlns="http://www.w3.org/2000/svg" id="basket">
  <path d="M23.78,11,22.35,5.27A3,3,0,0,0,19.44,3H12.56A3,3,0,0,0,9.65,5.27L8.22,11H2.16L6.09,26.73A3,3,0,0,0,9,29H23a3,3,0,0,0,2.91-2.27L29.84,11ZM15,21v6H12.83L11.7,21Zm-3.67-2L10.2,13H15v6ZM17,21h3.3l-1.13,6H17Zm0-2V13h4.8l-1.13,6Zm6.83-6h3.45l-1.5,6H22.7ZM11.59,5.76a1,1,0,0,1,1-.76h6.88a1,1,0,0,1,1,.76L21.72,11H10.28ZM8.17,13,9.3,19H6.22l-1.5-6ZM8,26.24,6.72,21h3l1.12,6H9A1,1,0,0,1,8,26.24Zm15.94,0A1,1,0,0,1,23,27H21.21l1.12-6h3Z"/>
</symbol>
</symbol>
    <symbol width="30px" height="30px" viewBox="0 0 24 24" xmlns="http://www.w3.org/2000/svg" id="telega">
        <path d="M19.2,4.4L2.9,10.7c-1.1,0.4-1.1,1.1-0.2,1.3l4.1,1.3l1.6,4.8c0.2,0.5,0.1,0.7,0.6,0.7c0.4,0,0.6-0.2,0.8-0.4
	c0.1-0.1,1-1,2-2l4.2,3.1c0.8,0.4,1.3,0.2,1.5-0.7l2.8-13.1C20.6,4.6,19.9,4,19.2,4.4z M17.1,7.4l-7.8,7.1L9,17.8L7.4,13l9.2-5.8
	C17,6.9,17.4,7.1,17.1,7.4z"/>    
    </symbol>
</svg>